<?xml version="1.0" encoding="UTF-8"?>
<svg id="Layer_1" data-name="Layer 1" xmlns="http://www.w3.org/2000/svg" viewBox="0 0 16.92 7.93">
  <defs>
    <style>
      .cls-1 {
        fill: #f36b35;
      }

      .cls-2 {
        fill: #231f20;
      }

      .cls-3 {
        fill: #f26a34;
      }
    </style>
  </defs>
  <path class="cls-2" d="M0,0h2.88c.51,0,.97.09,1.37.27.41.18.73.45.97.81.24.36.36.81.36,1.36s-.12,1-.36,1.38c-.24.38-.57.67-.97.86-.41.2-.87.3-1.37.3h-1.09v2.95H0V0ZM1.79,3.55h.59c.24,0,.46-.04.66-.11.19-.07.35-.19.47-.34.12-.16.17-.37.17-.63s-.06-.47-.17-.63c-.12-.15-.27-.27-.47-.33-.19-.07-.41-.1-.66-.1h-.59s0,2.14,0,2.14Z"/>
  <path class="cls-2" d="M8.3,7.92h-1.82V2.99h1.82v.76h-.03c.03-.09.11-.21.23-.35.12-.14.3-.27.52-.38.22-.11.5-.17.82-.17.23,0,.44.03.63.1.19.07.33.14.42.2l-.71,1.48c-.06-.07-.16-.14-.3-.21s-.32-.11-.53-.11c-.24,0-.44.06-.6.19-.16.12-.27.27-.35.45-.07.18-.11.34-.11.5v2.47h.01Z"/>
  <g>
    <path class="cls-1" d="M14.11,7.48c-.47,0-.89-.09-1.26-.27s-.65-.42-.86-.74c-.21-.31-.31-.67-.31-1.08s.1-.77.31-1.08c.21-.32.49-.57.86-.75.37-.18.78-.27,1.26-.27s.89.09,1.25.27c.36.18.64.43.84.75s.3.68.3,1.08-.1.76-.3,1.08-.48.56-.84.74-.78.27-1.25.27ZM14.11,6.27c.18,0,.34-.04.47-.11s.24-.18.31-.31c.07-.14.11-.29.11-.46s-.04-.33-.11-.46c-.07-.14-.18-.24-.31-.32-.13-.08-.29-.12-.47-.12s-.34.04-.47.12-.24.18-.32.32c-.08.14-.11.29-.11.46s.04.32.11.46.18.24.32.31c.13.07.29.11.47.11Z"/>
    <path class="cls-3" d="M16.29,5.38c0-.11-.01-.22-.03-.33l.66-.45-.63-.97-.77.27c-.19-.14-.42-.26-.66-.33l-.12-.72h-1.27l-.12.72c-.24.08-.46.19-.66.33l-.77-.27-.63.97.66.45c-.02.11-.03.22-.03.33s.01.22.03.33l-.66.45.63.97.77-.27c.19.14.42.26.66.33l.12.72h1.27l.12-.72c.24-.08.46-.19.66-.33l.77.27.63-.97-.66-.45c.02-.11.03-.22.03-.33ZM14.1,6.6c-.77,0-1.39-.55-1.39-1.22s.62-1.22,1.39-1.22,1.39.55,1.39,1.22-.62,1.22-1.39,1.22Z"/>
  </g>
</svg>